<svg xmlns="http://www.w3.org/2000/svg" width="201.315" height="201.948" viewBox="0 0 201.315 201.948"><g id="グループ_433" fill="none" stroke="#f9e14e" stroke-width="1" data-name="グループ 433" transform="translate(-904.104 -2070.5)"><path id="パス_38" d="M933.738 2100.432a100.369 100.369 0 01171.143 63.548h-52.916a47.771 47.771 0 00-94.351 0h-52.971a100 100 0 0129.095-63.548z" data-name="パス 38" transform="translate(0 .002)"/><path id="パス_39" d="M997.243 2131.028a32.775 32.775 0 01-32.75 32.741 32.733 32.733 0 1132.75-32.741z" data-name="パス 39" transform="translate(40.287 40.451)"/><path id="パス_40" d="M1004.779 2207.48a100.341 100.341 0 01-100.136-92.945h52.971a47.78 47.78 0 0094.351 0h52.907a100.488 100.488 0 01-100.093 92.945z" data-name="パス 40" transform="translate(0 64.468)"/></g></svg>