<svg width="389" height="389" viewBox="0 0 389 389" fill="none" xmlns="http://www.w3.org/2000/svg">
<path opacity="0.05" fill-rule="evenodd" clip-rule="evenodd" d="M194.484 371.838C147.132 371.838 102.641 353.391 69.0888 319.921C38.789 289.552 20.9168 250.144 17.7334 207.784H111.237C113.971 225.256 122.203 241.357 134.847 254.078C150.854 270.048 172.012 278.798 194.484 278.798C216.972 278.798 238.15 270.048 254.1 254.078C266.833 241.357 275.033 225.256 277.776 207.784H371.152C364.434 299.339 287.828 371.838 194.484 371.838V371.838ZM252.292 194.504C252.292 226.387 226.375 252.295 194.484 252.295C179.011 252.295 164.527 246.246 153.699 235.349C142.741 224.477 136.863 209.919 136.863 194.504C136.863 179.085 142.741 164.593 153.699 153.651C164.527 142.738 179.011 136.759 194.484 136.759C209.932 136.759 224.416 142.738 235.354 153.651C246.288 164.593 252.292 179.085 252.292 194.504V194.504ZM69.0888 69.1037C102.641 35.5844 147.132 17.1535 194.484 17.1535C241.888 17.1535 286.387 35.5844 319.891 69.1037C350.285 99.4518 368.108 138.86 371.169 181.269H277.776C275.033 163.793 266.833 147.627 254.1 134.902C238.15 119.026 216.972 110.222 194.484 110.222C152.548 110.222 117.661 141.044 111.237 181.269H17.7334C20.9168 138.86 38.789 99.4518 69.0888 69.1037V69.1037ZM194.484 0C87.112 0 0 87.0857 0 194.504C0 301.923 87.112 389 194.484 389C301.896 389 389 301.923 389 194.504C389 87.0857 301.896 0 194.484 0" fill="black"/>
</svg>
