<svg width="498" height="498" viewBox="0 0 498 498" fill="none" xmlns="http://www.w3.org/2000/svg">
<g opacity="0.05" filter="url(#filter0_d_45_157)">
<path fill-rule="evenodd" clip-rule="evenodd" d="M359.919 437.849C308.36 467.54 248.348 475.35 190.827 459.944C138.793 445.875 94.6223 414.171 64.5956 370.043L166.408 311.414C180.341 328.724 199.4 341.094 221.144 347.018C248.587 354.37 277.112 350.631 301.581 336.541C326.067 322.44 343.641 299.633 350.994 272.243C356.883 250.407 355.716 227.734 347.747 206.99L449.422 148.441C499.514 252.344 461.559 379.32 359.919 437.849ZM311.671 208.509C331.662 243.225 319.688 287.685 284.962 307.682C268.115 317.383 248.55 319.88 229.928 314.804C211.178 309.836 195.651 297.67 185.985 280.885C176.317 264.096 173.629 244.631 178.701 225.845C183.648 207.173 195.671 191.58 212.518 181.879C229.339 172.192 248.859 169.621 267.612 174.645C286.379 179.704 302.003 191.72 311.671 208.509ZM33.5583 186.837C49.0752 129.301 85.9629 81.3354 137.522 51.6447C189.14 21.9207 249.15 14.0876 306.648 29.578C358.772 43.5654 402.889 75.3005 432.813 119.558L331.121 178.118C317.176 160.809 298.112 148.348 276.267 142.476C248.945 135.19 220.366 138.883 195.879 152.984C150.217 179.279 131.555 234.715 149.782 282.542L47.9695 341.171C24.8447 292.998 19.5949 238.881 33.5583 186.837ZM126.767 32.9668C9.85332 100.292 -30.395 249.738 36.9592 366.702C104.313 483.667 253.767 523.861 370.68 456.536C487.638 389.185 527.882 239.753 460.528 122.789C393.174 5.82468 243.725 -34.3836 126.767 32.9668Z" fill="black"/>
</g>
<defs>
<filter id="filter0_d_45_157" x="0.319824" y="0.321747" width="496.847" height="496.845" filterUnits="userSpaceOnUse" color-interpolation-filters="sRGB">
<feFlood flood-opacity="0" result="BackgroundImageFix"/>
<feColorMatrix in="SourceAlpha" type="matrix" values="0 0 0 0 0 0 0 0 0 0 0 0 0 0 0 0 0 0 127 0" result="hardAlpha"/>
<feOffset dy="4"/>
<feGaussianBlur stdDeviation="2"/>
<feComposite in2="hardAlpha" operator="out"/>
<feColorMatrix type="matrix" values="0 0 0 0 0 0 0 0 0 0 0 0 0 0 0 0 0 0 0.25 0"/>
<feBlend mode="normal" in2="BackgroundImageFix" result="effect1_dropShadow_45_157"/>
<feBlend mode="normal" in="SourceGraphic" in2="effect1_dropShadow_45_157" result="shape"/>
</filter>
</defs>
</svg>
